# xmcd
#
# Track frame offsets:
#	150
#	1380
#	3439
#	5942
#	8687
#	11402
#	13987
#	16727
#	19255
#	22512
#	25115
#	26527
#	28230
#	30562
#	33512
#	36450
#	39260
#	41355
#	44010
#	47085
#	49702
#	52567
#	55030
#	56910
#	59640
#	62180
#	63930
#	66825
#	69442
#	73210
#	77592
#	78790
#	81215
#	83395
#	85722
#	88897
#	91347
#	93325
#	95630
#	98630
#	101892
#	105005
#	108305
#	110760
#	112810
#	116225
#	119000
#	121357
#	124237
#	126867
#	129152
#	131007
#	133362
#	135540
#	137897
#	140722
#	143565
#	147002
#	149705
#	152207
#	154035
#	156910
#	159730
#	163040
#	165545
#	169007
#	172207
#	175082
#	177550
#	179347
#	181482
#	184045
#	186977
#	188845
#	191132
#	193052
#	196375
#	199297
#	202062
#	204662
#	206300
#	207762
#	210225
#	212087
#	213620
#	214817
#	215842
#	218162
#	220365
#	223457
#	226007
#	228305
#	230745
#	233070
#	235300
#	237702
#	239800
#	242482
#	245875
#
# Disc length: 3319 seconds
#
# Revision: 1
# Processed by: cddbd v1.5.1PL0 Copyright (c) Steve Scherf et al.
# Submitted via: CDex 1.50Beta5
#
DISCID=b90cf563
DTITLE=ALC - TOEICテストボキャブラリー基本編
DYEAR=1900
DGENRE=Other
TTITLE0=01stDay感情1
TTITLE1=01stDay感情1
TTITLE2=01stDay感情1
TTITLE3=01stDay感情1
TTITLE4=01stDay感情1
TTITLE5=01stDay感情1
TTITLE6=01stDay感情1
TTITLE7=01stDay感情1
TTITLE8=01stDay感情1
TTITLE9=01stDay感情1
TTITLE10=02ndDay感情2
TTITLE11=02ndDay感情2
TTITLE12=02ndDay感情2
TTITLE13=02ndDay感情2
TTITLE14=02ndDay感情2
TTITLE15=02ndDay感情2
TTITLE16=02ndDay感情2
TTITLE17=02ndDay感情2
TTITLE18=02ndDay感情2
TTITLE19=03rdDay態度1
TTITLE20=03rdDay態度1
TTITLE21=03rdDay態度1
TTITLE22=03rdDay態度1
TTITLE23=03rdDay態度1
TTITLE24=03rdDay態度1
TTITLE25=03rdDay態度1
TTITLE26=03rdDay態度1
TTITLE27=03rdDay態度1
TTITLE28=03rdDay態度1
TTITLE29=03rdDay態度1
TTITLE30=04thDay態度2
TTITLE31=04thDay態度2
TTITLE32=04thDay態度2
TTITLE33=04thDay態度2
TTITLE34=04thDay態度2
TTITLE35=04thDay態度2
TTITLE36=04thDay態度2
TTITLE37=04thDay態度2
TTITLE38=04thDay態度2
TTITLE39=04thDay態度2
TTITLE40=05thDay性格
TTITLE41=05thDay性格
TTITLE42=05thDay性格
TTITLE43=05thDay性格
TTITLE44=05thDay性格
TTITLE45=05thDay性格
TTITLE46=05thDay性格
TTITLE47=05thDay性格
TTITLE48=05thDay性格
TTITLE49=06thDay思考
TTITLE50=06thDay思考
TTITLE51=06thDay思考
TTITLE52=06thDay思考
TTITLE53=06thDay思考
TTITLE54=06thDay思考
TTITLE55=06thDay思考
TTITLE56=06thDay思考
TTITLE57=06thDay思考
TTITLE58=06thDay思考
TTITLE59=07thDay表現
TTITLE60=07thDay表現
TTITLE61=07thDay表現
TTITLE62=07thDay表現
TTITLE63=07thDay表現
TTITLE64=07thDay表現
TTITLE65=07thDay表現
TTITLE66=07thDay表現
TTITLE67=07thDay表現
TTITLE68=08thDay動作1
TTITLE69=08thDay動作1
TTITLE70=08thDay動作1
TTITLE71=08thDay動作1
TTITLE72=08thDay動作1
TTITLE73=08thDay動作1
TTITLE74=08thDay動作1
TTITLE75=08thDay動作1
TTITLE76=08thDay動作1
TTITLE77=08thDay動作1
TTITLE78=08thDay動作1
TTITLE79=09thDay動作2
TTITLE80=09thDay動作2
TTITLE81=09thDay動作2
TTITLE82=09thDay動作2
TTITLE83=09thDay動作2
TTITLE84=09thDay動作2
TTITLE85=09thDay動作2
TTITLE86=09thDay動作2
TTITLE87=09thDay動作2
TTITLE88=09thDay動作2
TTITLE89=09thDay動作2
TTITLE90=10thDay破壊
TTITLE91=10thDay破壊
TTITLE92=10thDay破壊
TTITLE93=10thDay破壊
TTITLE94=10thDay破壊
TTITLE95=10thDay破壊
TTITLE96=10thDay破壊
TTITLE97=10thDay破壊
TTITLE98=10thDay破壊
EXTD=
EXTT0=
EXTT1=
EXTT2=
EXTT3=
EXTT4=
EXTT5=
EXTT6=
EXTT7=
EXTT8=
EXTT9=
EXTT10=
EXTT11=
EXTT12=
EXTT13=
EXTT14=
EXTT15=
EXTT16=
EXTT17=
EXTT18=
EXTT19=
EXTT20=
EXTT21=
EXTT22=
EXTT23=
EXTT24=
EXTT25=
EXTT26=
EXTT27=
EXTT28=
EXTT29=
EXTT30=
EXTT31=
EXTT32=
EXTT33=
EXTT34=
EXTT35=
EXTT36=
EXTT37=
EXTT38=
EXTT39=
EXTT40=
EXTT41=
EXTT42=
EXTT43=
EXTT44=
EXTT45=
EXTT46=
EXTT47=
EXTT48=
EXTT49=
EXTT50=
EXTT51=
EXTT52=
EXTT53=
EXTT54=
EXTT55=
EXTT56=
EXTT57=
EXTT58=
EXTT59=
EXTT60=
EXTT61=
EXTT62=
EXTT63=
EXTT64=
EXTT65=
EXTT66=
EXTT67=
EXTT68=
EXTT69=
EXTT70=
EXTT71=
EXTT72=
EXTT73=
EXTT74=
EXTT75=
EXTT76=
EXTT77=
EXTT78=
EXTT79=
EXTT80=
EXTT81=
EXTT82=
EXTT83=
EXTT84=
EXTT85=
EXTT86=
EXTT87=
EXTT88=
EXTT89=
EXTT90=
EXTT91=
EXTT92=
EXTT93=
EXTT94=
EXTT95=
EXTT96=
EXTT97=
EXTT98=
PLAYORDER=
